<svg width="579" height="163" viewBox="0 0 579 163" fill="none" xmlns="http://www.w3.org/2000/svg">
<path d="M63.2656 59.3438V78.25H16.625V59.3438H63.2656ZM23.1094 13.25V127H0.21875V13.25H23.1094ZM79.8281 13.25V127H57.1719V13.25H79.8281ZM134.672 107.547V68.4844C134.672 65.9323 134.359 63.901 133.734 62.3906C133.161 60.8802 132.276 59.7865 131.078 59.1094C129.932 58.3802 128.526 58.0156 126.859 58.0156C124.984 58.0156 123.422 58.4062 122.172 59.1875C120.922 59.9688 119.984 61.0885 119.359 62.5469C118.786 64.0052 118.5 65.75 118.5 67.7812H96.5469C96.5469 64.1354 97.25 60.6979 98.6562 57.4688C100.062 54.1875 102.12 51.3229 104.828 48.875C107.589 46.375 110.87 44.4219 114.672 43.0156C118.474 41.6094 122.745 40.9062 127.484 40.9062C133.109 40.9062 138.109 41.8698 142.484 43.7969C146.859 45.6719 150.323 48.6667 152.875 52.7812C155.427 56.8958 156.703 62.2344 156.703 68.7969V106.453C156.703 111.193 156.938 115.047 157.406 118.016C157.927 120.984 158.682 123.536 159.672 125.672V127H137.641C136.651 124.656 135.896 121.74 135.375 118.25C134.906 114.708 134.672 111.141 134.672 107.547ZM137.328 75.3594L137.406 88.4844H129.359C127.276 88.4844 125.453 88.8229 123.891 89.5C122.38 90.1771 121.104 91.1406 120.062 92.3906C119.021 93.5885 118.24 94.9948 117.719 96.6094C117.25 98.224 117.016 99.9427 117.016 101.766C117.016 103.797 117.302 105.516 117.875 106.922C118.448 108.328 119.307 109.396 120.453 110.125C121.599 110.854 122.953 111.219 124.516 111.219C126.911 111.219 128.995 110.724 130.766 109.734C132.536 108.745 133.839 107.547 134.672 106.141C135.557 104.734 135.844 103.432 135.531 102.234L140.531 110.75C139.906 112.677 139.047 114.682 137.953 116.766C136.911 118.849 135.583 120.776 133.969 122.547C132.354 124.318 130.349 125.776 127.953 126.922C125.609 128.016 122.823 128.562 119.594 128.562C115.062 128.562 110.922 127.521 107.172 125.438C103.422 123.354 100.453 120.438 98.2656 116.688C96.1302 112.938 95.0625 108.484 95.0625 103.328C95.0625 99.0573 95.7396 95.2031 97.0938 91.7656C98.5 88.276 100.583 85.3333 103.344 82.9375C106.104 80.4896 109.594 78.6146 113.812 77.3125C118.031 76.0104 122.979 75.3594 128.656 75.3594H137.328ZM172.953 7H194.75V107.391L193.188 127H172.953V7ZM238.656 81.9219V87.4688C238.656 94.3438 238.109 100.333 237.016 105.438C235.974 110.542 234.333 114.812 232.094 118.25C229.906 121.688 227.094 124.266 223.656 125.984C220.219 127.703 216.156 128.562 211.469 128.562C207.25 128.562 203.63 127.573 200.609 125.594C197.589 123.562 195.036 120.776 192.953 117.234C190.922 113.641 189.255 109.448 187.953 104.656C186.703 99.8125 185.792 94.526 185.219 88.7969V80.5938C185.74 74.9688 186.625 69.7344 187.875 64.8906C189.177 60.0469 190.844 55.8542 192.875 52.3125C194.906 48.7188 197.432 45.9323 200.453 43.9531C203.526 41.9219 207.146 40.9062 211.312 40.9062C216.104 40.9062 220.219 41.7917 223.656 43.5625C227.094 45.2812 229.906 47.8594 232.094 51.2969C234.333 54.7344 235.974 59.0312 237.016 64.1875C238.109 69.2917 238.656 75.2031 238.656 81.9219ZM216.859 87.4688V81.9219C216.859 78.0156 216.703 74.6562 216.391 71.8438C216.078 69.0312 215.505 66.6875 214.672 64.8125C213.839 62.9375 212.641 61.5312 211.078 60.5938C209.568 59.6562 207.562 59.1875 205.062 59.1875C202.823 59.1875 200.948 59.6302 199.438 60.5156C197.927 61.349 196.625 62.599 195.531 64.2656C194.49 65.8802 193.708 67.8073 193.188 70.0469C192.719 72.2344 192.458 74.6562 192.406 77.3125V92.0781C192.458 95.6719 192.901 98.849 193.734 101.609C194.568 104.37 195.896 106.505 197.719 108.016C199.594 109.526 202.094 110.281 205.219 110.281C207.667 110.281 209.646 109.865 211.156 109.031C212.667 108.198 213.839 106.87 214.672 105.047C215.557 103.224 216.13 100.88 216.391 98.0156C216.703 95.099 216.859 91.5833 216.859 87.4688ZM275.062 42.4688V127H253.109V42.4688H275.062ZM252.094 20.5938C252.094 17.2083 253.161 14.4219 255.297 12.2344C257.484 9.99479 260.401 8.875 264.047 8.875C267.745 8.875 270.661 9.99479 272.797 12.2344C274.932 14.4219 276 17.2083 276 20.5938C276 23.9271 274.906 26.7135 272.719 28.9531C270.583 31.1406 267.719 32.2344 264.125 32.2344C260.427 32.2344 257.484 31.1406 255.297 28.9531C253.161 26.7135 252.094 23.9271 252.094 20.5938ZM329.281 42.4688V58.9531H286.156V42.4688H329.281ZM296.078 21.6094H317.875V101.219C317.875 103.562 318.109 105.359 318.578 106.609C319.047 107.859 319.75 108.745 320.688 109.266C321.677 109.734 322.979 109.969 324.594 109.969C325.688 109.969 326.703 109.917 327.641 109.812C328.578 109.656 329.281 109.5 329.75 109.344V126.453C328.031 127.13 326.208 127.651 324.281 128.016C322.406 128.38 320.167 128.562 317.562 128.562C313.188 128.562 309.385 127.729 306.156 126.062C302.979 124.396 300.505 121.74 298.734 118.094C296.964 114.396 296.078 109.552 296.078 103.562V21.6094ZM378.969 104.188C378.969 102.729 378.474 101.427 377.484 100.281C376.495 99.1354 374.932 97.9635 372.797 96.7656C370.661 95.5156 367.823 94.1354 364.281 92.625C360.427 91.0625 357.016 89.4479 354.047 87.7812C351.078 86.1146 348.552 84.2656 346.469 82.2344C344.438 80.2031 342.901 77.8854 341.859 75.2812C340.818 72.6771 340.297 69.7083 340.297 66.375C340.297 62.7812 340.948 59.474 342.25 56.4531C343.604 53.3802 345.531 50.6979 348.031 48.4062C350.531 46.0625 353.578 44.2396 357.172 42.9375C360.818 41.5833 364.906 40.9062 369.438 40.9062C375.792 40.9062 381.234 42.026 385.766 44.2656C390.349 46.4531 393.865 49.526 396.312 53.4844C398.76 57.4427 399.984 62.0521 399.984 67.3125H378.109C378.109 65.4375 377.823 63.7708 377.25 62.3125C376.677 60.8021 375.74 59.6302 374.438 58.7969C373.188 57.9635 371.495 57.5469 369.359 57.5469C367.797 57.5469 366.391 57.8854 365.141 58.5625C363.943 59.2396 362.979 60.151 362.25 61.2969C361.573 62.3906 361.234 63.6927 361.234 65.2031C361.234 66.349 361.469 67.3646 361.938 68.25C362.458 69.1354 363.266 69.9948 364.359 70.8281C365.453 71.6615 366.911 72.5469 368.734 73.4844C370.609 74.3698 372.901 75.3594 375.609 76.4531C381.234 78.5365 385.844 80.776 389.438 83.1719C393.083 85.5677 395.792 88.3802 397.562 91.6094C399.333 94.7865 400.219 98.7188 400.219 103.406C400.219 107.156 399.49 110.568 398.031 113.641C396.625 116.714 394.568 119.37 391.859 121.609C389.151 123.849 385.896 125.568 382.094 126.766C378.344 127.964 374.151 128.562 369.516 128.562C362.693 128.562 356.938 127.208 352.25 124.5C347.562 121.792 344.021 118.328 341.625 114.109C339.229 109.839 338.031 105.411 338.031 100.828H358.812C358.917 103.641 359.438 105.854 360.375 107.469C361.365 109.031 362.693 110.125 364.359 110.75C366.026 111.375 367.875 111.688 369.906 111.688C371.938 111.688 373.604 111.427 374.906 110.906C376.26 110.333 377.276 109.474 377.953 108.328C378.63 107.13 378.969 105.75 378.969 104.188ZM452.328 82.5469V80.75C452.328 69.7083 453.37 59.7344 455.453 50.8281C457.536 41.8698 460.271 34.0052 463.656 27.2344C467.042 20.4115 470.688 14.7865 474.594 10.3594C478.552 5.93229 482.38 2.70312 486.078 0.671875L490.141 12.9375C487.797 15.125 485.479 18.0938 483.188 21.8438C480.896 25.5938 478.812 30.2292 476.938 35.75C475.062 41.2188 473.552 47.6771 472.406 55.125C471.26 62.5729 470.688 71.0625 470.688 80.5938V82.7031C470.688 92.1823 471.26 100.646 472.406 108.094C473.552 115.542 475.062 122.026 476.938 127.547C478.812 133.12 480.896 137.781 483.188 141.531C485.479 145.333 487.797 148.354 490.141 150.594L486.078 162.547C482.38 160.568 478.552 157.365 474.594 152.938C470.688 148.51 467.042 142.885 463.656 136.062C460.271 129.292 457.536 121.427 455.453 112.469C453.37 103.51 452.328 93.5365 452.328 82.5469ZM525.688 42.4688V127H503.734V42.4688H525.688ZM502.719 20.5938C502.719 17.2083 503.786 14.4219 505.922 12.2344C508.109 9.99479 511.026 8.875 514.672 8.875C518.37 8.875 521.286 9.99479 523.422 12.2344C525.557 14.4219 526.625 17.2083 526.625 20.5938C526.625 23.9271 525.531 26.7135 523.344 28.9531C521.208 31.1406 518.344 32.2344 514.75 32.2344C511.052 32.2344 508.109 31.1406 505.922 28.9531C503.786 26.7135 502.719 23.9271 502.719 20.5938ZM578.344 80.75V82.4688C578.344 93.1458 577.276 102.964 575.141 111.922C573.005 120.828 570.193 128.693 566.703 135.516C563.214 142.391 559.411 148.12 555.297 152.703C551.234 157.286 547.276 160.568 543.422 162.547L539.281 150.594C541.573 148.458 543.865 145.49 546.156 141.688C548.448 137.885 550.531 133.224 552.406 127.703C554.281 122.182 555.792 115.698 556.938 108.25C558.083 100.75 558.656 92.2344 558.656 82.7031V80.6719C558.656 71.0885 558.083 62.5729 556.938 55.125C555.792 47.625 554.255 41.1146 552.328 35.5938C550.401 30.0729 548.292 25.4375 546 21.6875C543.708 17.8854 541.469 14.8906 539.281 12.7031L543.422 0.75C547.276 2.72917 551.234 6.01042 555.297 10.5938C559.411 15.1771 563.214 20.9062 566.703 27.7812C570.193 34.6042 573.005 42.4688 575.141 51.375C577.276 60.2812 578.344 70.0729 578.344 80.75Z" fill="white"/>
</svg>
